<svg width="426" height="40" viewBox="0 0 426 40" fill="none" xmlns="http://www.w3.org/2000/svg">
<rect x="0.857178" y="17" width="424.286" height="6" rx="3" fill="#F3F5F6"/>
<rect x="0.857178" y="17" width="241.371" height="6" rx="3" fill="#F5C34B"/>
<rect x="222.486" y="1" width="35.7143" height="38" rx="17.8571" fill="white" stroke="#F5C34B" stroke-width="2"/>
<g clip-path="url(#clip0_1_1619)">
<path d="M249.106 19.1221C249.869 18.3336 249.448 16.9597 248.394 16.7973L244.296 16.1657C243.877 16.1012 243.515 15.8223 243.328 15.4201L241.495 11.4815C241.024 10.4684 239.662 10.4684 239.19 11.4815L237.358 15.4201C237.171 15.8223 236.809 16.1012 236.39 16.1657L232.292 16.7973C231.238 16.9597 230.817 18.3336 231.58 19.1221L234.545 22.1879C234.848 22.501 234.986 22.9521 234.915 23.3943L234.215 27.7232C234.035 28.8366 235.136 29.6858 236.079 29.16L239.745 27.1162C240.119 26.9075 240.566 26.9075 240.941 27.1162L244.606 29.16C245.549 29.6856 246.651 28.8366 246.471 27.7232L245.771 23.3943C245.699 22.9522 245.838 22.501 246.14 22.1879L249.106 19.1221Z" fill="#F4E64C"/>
<path d="M235.688 28.1145L236.388 23.7856C236.46 23.3434 236.321 22.8923 236.018 22.5792L233.053 19.5134C232.29 18.7248 232.711 17.3509 233.765 17.1886L237.863 16.557C238.282 16.4925 238.644 16.2137 238.831 15.8113L240.664 11.8727C240.814 11.5488 241.056 11.329 241.331 11.2123C240.763 10.4794 239.615 10.5692 239.19 11.4821L237.358 15.4207C237.171 15.8231 236.809 16.1018 236.39 16.1664L232.292 16.7979C231.238 16.9603 230.817 18.3342 231.58 19.1228L234.545 22.1886C234.848 22.5017 234.986 22.9527 234.915 23.3949L234.215 27.7238C234.042 28.7929 235.051 29.6175 235.966 29.2163C235.739 28.9296 235.619 28.5417 235.688 28.1145Z" fill="#FAB659"/>
<path d="M236.781 19.1084V19.7392C236.781 19.9011 236.904 20.0322 237.057 20.0322C237.209 20.0322 237.333 19.9011 237.333 19.7392V19.1084C237.333 18.9467 237.209 18.8154 237.057 18.8154C236.904 18.8154 236.781 18.9467 236.781 19.1084Z" fill="black"/>
<path d="M243.905 19.7392V19.1084C243.905 18.9467 243.781 18.8154 243.629 18.8154C243.476 18.8154 243.353 18.9467 243.353 19.1084V19.7392C243.353 19.9011 243.476 20.0322 243.629 20.0322C243.781 20.0322 243.905 19.9011 243.905 19.7392Z" fill="black"/>
<path d="M240.343 20.3689C240.739 20.3689 241.11 20.1938 241.362 19.8881C241.462 19.7664 241.451 19.5813 241.336 19.4748C241.221 19.3683 241.046 19.3806 240.946 19.5025C240.799 19.6808 240.579 19.783 240.343 19.783C240.107 19.783 239.887 19.6808 239.74 19.5025C239.64 19.3808 239.465 19.3683 239.35 19.4748C239.235 19.5813 239.223 19.7664 239.324 19.8881C239.576 20.1938 239.947 20.3689 240.343 20.3689Z" fill="black"/>
<path d="M234.643 23.3456L233.942 27.6747C233.841 28.3005 234.079 28.921 234.564 29.2943C235.048 29.6675 235.678 29.7157 236.208 29.4203L239.873 27.3766C240.167 27.2125 240.518 27.2125 240.812 27.3766C240.812 27.3766 244.478 29.4203 244.478 29.4203C244.991 29.7067 245.64 29.6657 246.122 29.2943C246.606 28.921 246.844 28.3005 246.743 27.6747L246.424 25.6999C246.398 25.5405 246.255 25.4333 246.105 25.4607C245.954 25.4881 245.854 25.6395 245.879 25.7989L246.199 27.7737C246.265 28.1842 246.115 28.5754 245.797 28.8202C245.48 29.0651 245.083 29.0955 244.735 28.9017L241.069 26.8579C240.615 26.6042 240.071 26.6042 239.616 26.8579L235.951 28.9017C235.603 29.0955 235.206 29.0651 234.888 28.8202C234.571 28.5754 234.421 28.1842 234.487 27.7737L235.187 23.4448C235.274 22.9076 235.106 22.3596 234.738 21.9791L231.773 18.9133C231.492 18.6226 231.396 18.2126 231.517 17.8165C231.639 17.4203 231.943 17.1481 232.332 17.0882L236.43 16.4566C236.939 16.3782 237.378 16.0396 237.606 15.5507L238.455 13.7245C238.523 13.5794 238.467 13.4038 238.33 13.3321C238.193 13.2605 238.027 13.32 237.96 13.4651L237.11 15.2914C236.963 15.6071 236.679 15.8261 236.35 15.8768L232.252 16.5083C231.66 16.5996 231.177 17.0314 230.992 17.6353C230.807 18.2391 230.958 18.8896 231.387 19.3327L234.353 22.3985C234.59 22.6445 234.699 22.9985 234.643 23.3456Z" fill="black"/>
<path d="M248.433 16.5083L244.335 15.8768C244.007 15.8261 243.723 15.6073 243.576 15.2914L241.743 11.3527C241.478 10.7834 240.941 10.4297 240.343 10.4297C239.744 10.4297 239.208 10.7834 238.943 11.3527L238.476 12.3555C238.409 12.5005 238.465 12.6762 238.602 12.7478C238.738 12.8194 238.904 12.7599 238.972 12.6147L239.438 11.6121C239.612 11.2386 239.95 11.0156 240.343 11.0156C240.736 11.0156 241.074 11.2386 241.247 11.6121L243.08 15.5507C243.308 16.0396 243.747 16.3782 244.256 16.4566L248.354 17.0882C248.743 17.1481 249.047 17.4203 249.168 17.8165C249.29 18.2126 249.194 18.6226 248.913 18.9133L245.948 21.9791C245.58 22.3596 245.412 22.9076 245.499 23.4448C245.499 23.4448 245.649 24.3741 245.649 24.3759C245.675 24.5326 245.821 24.642 245.968 24.6152C246.119 24.5879 246.219 24.4363 246.194 24.2769L246.043 23.3458C245.987 22.9987 246.095 22.6445 246.333 22.3987L249.299 19.3329C249.727 18.8898 249.879 18.2393 249.694 17.6353C249.509 17.0314 249.026 16.5996 248.433 16.5083Z" fill="black"/>
</g>
<defs>
<clipPath id="clip0_1_1619">
<rect width="18.8571" height="20" fill="white" transform="translate(230.914 10)"/>
</clipPath>
</defs>
</svg>
