<svg width="51" height="51" viewBox="0 0 51 51" fill="none" xmlns="http://www.w3.org/2000/svg">
<circle cx="25.9277" cy="25.0996" r="24.5" fill="white" stroke="#EAEAEA"/>
<g clip-path="url(#clip0_49_699)">
<path d="M21.7463 26.1019L28.1061 32.4441C28.3145 32.6518 28.6518 32.6514 28.8599 32.443C29.0677 32.2347 29.0672 31.8971 28.8588 31.6893L22.8776 25.7246L28.859 19.7599C29.0674 19.552 29.0679 19.2147 28.8601 19.0063C28.7558 18.9019 28.6192 18.8496 28.4826 18.8496C28.3463 18.8496 28.2102 18.9015 28.1061 19.0052L21.7463 25.3473C21.646 25.4471 21.5897 25.583 21.5897 25.7246C21.5897 25.8662 21.6461 26.0019 21.7463 26.1019Z" fill="#112137"/>
</g>
<defs>
<clipPath id="clip0_49_699">
<rect width="13.75" height="13.75" fill="white" transform="translate(32.1777 32.5996) rotate(-180)"/>
</clipPath>
</defs>
</svg>
