<svg width="27" height="21" viewBox="0 0 27 21" fill="none" xmlns="http://www.w3.org/2000/svg">
<path d="M26.8879 4.76116C26.8879 4.34263 26.7205 3.92411 26.4192 3.62277L24.1424 1.34598C23.841 1.04464 23.4225 0.877231 23.004 0.877231C22.5855 0.877231 22.1669 1.04464 21.8656 1.34598L10.8834 12.3449L5.96157 7.40625C5.66023 7.10491 5.2417 6.9375 4.82317 6.9375C4.40465 6.9375 3.98612 7.10491 3.68478 7.40625L1.40799 9.68304C1.10665 9.98437 0.939244 10.4029 0.939244 10.8214C0.939244 11.24 1.10665 11.6585 1.40799 11.9598L7.46826 18.0201L9.74505 20.2969C10.0464 20.5982 10.4649 20.7656 10.8834 20.7656C11.302 20.7656 11.7205 20.5982 12.0218 20.2969L14.2986 18.0201L26.4192 5.89955C26.7205 5.59821 26.8879 5.17969 26.8879 4.76116Z" fill="white"/>
</svg>
