<svg width="15" height="14" viewBox="0 0 15 14" fill="none" xmlns="http://www.w3.org/2000/svg">
<g clip-path="url(#clip0_32_349)">
<path d="M14.0278 11.6243H13.7471V1.94141C13.7471 1.6998 13.5512 1.50391 13.3096 1.50391H10.6411C10.3994 1.50391 10.2036 1.6998 10.2036 1.94141V11.6243H9.23723V3.983C9.23723 3.74139 9.04134 3.5455 8.79973 3.5455H6.13115C5.88954 3.5455 5.69365 3.74139 5.69365 3.983V11.6243H4.72733V6.0247C4.72733 5.7831 4.53143 5.5872 4.28983 5.5872H1.62125C1.37964 5.5872 1.18375 5.7831 1.18375 6.0247V11.6243H0.902832C0.661224 11.6243 0.465332 11.8202 0.465332 12.0618C0.465332 12.3034 0.661224 12.4993 0.902832 12.4993H14.0278C14.2694 12.4993 14.4653 12.3034 14.4653 12.0618C14.4653 11.8202 14.2694 11.6243 14.0278 11.6243ZM11.0784 2.37891H12.872V11.6243H11.0784V2.37891ZM6.56865 11.6243V4.4205H8.36223V11.6243H6.56865ZM2.05875 6.4622H3.85233V11.6243H2.05875V6.4622Z" fill="#041E42"/>
</g>
<defs>
<clipPath id="clip0_32_349">
<rect width="14" height="14" fill="white" transform="translate(0.465332)"/>
</clipPath>
</defs>
</svg>
