<svg width="13" height="13" viewBox="0 0 13 13" fill="none" xmlns="http://www.w3.org/2000/svg">
<path d="M3.08838 13V4.82422H0.54541V13H3.08838ZM1.80322 3.73047C2.62354 3.73047 3.27979 3.04688 3.27979 2.22656C3.27979 1.43359 2.62354 0.777344 1.80322 0.777344C1.01025 0.777344 0.354004 1.43359 0.354004 2.22656C0.354004 3.04688 1.01025 3.73047 1.80322 3.73047ZM12.5767 13H12.604V8.51562C12.604 6.32812 12.1118 4.63281 9.5415 4.63281C8.31104 4.63281 7.49072 5.31641 7.13525 5.94531H7.10791V4.82422H4.67432V13H7.21729V8.95312C7.21729 7.88672 7.40869 6.875 8.72119 6.875C10.0337 6.875 10.061 8.07812 10.061 9.03516V13H12.5767Z" fill="#041E42"/>
</svg>
