<svg width="13" height="13" viewBox="0 0 13 13" fill="none" xmlns="http://www.w3.org/2000/svg">
<path d="M6.146 3.60547C4.396 3.60547 3.00146 5.02734 3.00146 6.75C3.00146 8.5 4.396 9.89453 6.146 9.89453C7.86865 9.89453 9.29053 8.5 9.29053 6.75C9.29053 5.02734 7.86865 3.60547 6.146 3.60547ZM6.146 8.80078C5.0249 8.80078 4.09521 7.89844 4.09521 6.75C4.09521 5.62891 4.99756 4.72656 6.146 4.72656C7.26709 4.72656 8.16943 5.62891 8.16943 6.75C8.16943 7.89844 7.26709 8.80078 6.146 8.80078ZM10.1382 3.49609C10.1382 3.08594 9.81006 2.75781 9.3999 2.75781C8.98975 2.75781 8.66162 3.08594 8.66162 3.49609C8.66162 3.90625 8.98975 4.23438 9.3999 4.23438C9.81006 4.23438 10.1382 3.90625 10.1382 3.49609ZM12.2163 4.23438C12.1616 3.25 11.9429 2.375 11.2319 1.66406C10.521 0.953125 9.646 0.734375 8.66162 0.679688C7.6499 0.625 4.61475 0.625 3.60303 0.679688C2.61865 0.734375 1.771 0.953125 1.03271 1.66406C0.321777 2.375 0.103027 3.25 0.0483398 4.23438C-0.00634766 5.24609 -0.00634766 8.28125 0.0483398 9.29297C0.103027 10.2773 0.321777 11.125 1.03271 11.8633C1.771 12.5742 2.61865 12.793 3.60303 12.8477C4.61475 12.9023 7.6499 12.9023 8.66162 12.8477C9.646 12.793 10.521 12.5742 11.2319 11.8633C11.9429 11.125 12.1616 10.2773 12.2163 9.29297C12.271 8.28125 12.271 5.24609 12.2163 4.23438ZM10.9038 10.3594C10.7124 10.9062 10.2749 11.3164 9.75537 11.5352C8.93506 11.8633 7.021 11.7812 6.146 11.7812C5.24365 11.7812 3.32959 11.8633 2.53662 11.5352C1.98975 11.3164 1.57959 10.9062 1.36084 10.3594C1.03271 9.56641 1.11475 7.65234 1.11475 6.75C1.11475 5.875 1.03271 3.96094 1.36084 3.14062C1.57959 2.62109 1.98975 2.21094 2.53662 1.99219C3.32959 1.66406 5.24365 1.74609 6.146 1.74609C7.021 1.74609 8.93506 1.66406 9.75537 1.99219C10.2749 2.18359 10.6851 2.62109 10.9038 3.14062C11.2319 3.96094 11.1499 5.875 11.1499 6.75C11.1499 7.65234 11.2319 9.56641 10.9038 10.3594Z" fill="#041E42"/>
</svg>
