<svg width="21" height="20" viewBox="0 0 21 20" fill="none" xmlns="http://www.w3.org/2000/svg">
<g clip-path="url(#clip0_1_2195)">
<path d="M2.05807 19.961C1.608 19.961 1.24316 19.6119 1.24316 19.1813C1.24316 15.2688 4.5698 12.0858 8.65878 12.0858H9.88113C10.7789 12.0858 11.6567 12.2378 12.4904 12.5377C12.9116 12.6892 13.1248 13.1388 12.9664 13.5419C12.8081 13.945 12.3382 14.149 11.9169 13.9974C11.2672 13.7637 10.5823 13.6452 9.88113 13.6452H8.65878C5.46848 13.6452 2.87297 16.1287 2.87297 19.1813C2.87297 19.6119 2.50814 19.961 2.05807 19.961ZM14.6891 5.26316C14.6891 2.36105 12.2215 0 9.18847 0C6.15544 0 3.68787 2.36105 3.68787 5.26316C3.68787 8.16526 6.15544 10.5263 9.18847 10.5263C12.2215 10.5263 14.6891 8.16526 14.6891 5.26316ZM13.0593 5.26316C13.0593 7.30538 11.3228 8.96686 9.18847 8.96686C7.05411 8.96686 5.31768 7.30538 5.31768 5.26316C5.31768 3.22094 7.05411 1.55945 9.18847 1.55945C11.3228 1.55945 13.0593 3.22094 13.0593 5.26316ZM19.66 17.6218V15.5625C19.66 14.2473 18.5418 13.1774 17.1673 13.1774H15.015C14.5649 13.1774 14.2001 13.5265 14.2001 13.9571C14.2001 14.3878 14.5649 14.7368 15.015 14.7368H17.1673C17.6431 14.7368 18.0302 15.1072 18.0302 15.5625V17.6218C18.0302 18.0525 18.395 18.4016 18.8451 18.4016C19.2951 18.4016 19.66 18.0525 19.66 17.6218ZM16.8263 17.1463C17.1371 16.8349 17.1253 16.3413 16.7998 16.0439C16.4743 15.7466 15.9585 15.7579 15.6476 16.0693C14.1436 17.5763 12.0322 18.4405 9.85445 18.4405H9.47368C9.02361 18.4405 8.65878 18.7896 8.65878 19.2203C8.65878 19.6509 9.02361 20 9.47368 20H9.85445C12.4752 20 15.0164 18.9598 16.8263 17.1463Z" fill="#041E42"/>
</g>
<defs>
<clipPath id="clip0_1_2195">
<rect width="20.9023" height="20" fill="white"/>
</clipPath>
</defs>
</svg>
