<svg width="10" height="10" viewBox="0 0 10 10" fill="none" xmlns="http://www.w3.org/2000/svg">
<g clip-path="url(#clip0_32_550)">
<path d="M9.73384 3.83573C9.67292 3.63325 9.50675 3.48989 9.31092 3.47074L6.63995 3.20866L5.58436 0.537725C5.50643 0.341494 5.3291 0.214844 5.13172 0.214844C4.93434 0.214844 4.75694 0.341494 4.6795 0.537725L3.62391 3.20866L0.952516 3.47074C0.756689 3.49027 0.590865 3.63363 0.52959 3.83573C0.468668 4.03822 0.524931 4.26032 0.673036 4.4007L2.69208 6.3141L2.09676 9.14786C2.05321 9.35622 2.12804 9.57168 2.288 9.69665C2.37399 9.76417 2.475 9.79789 2.57638 9.79789C2.66349 9.79789 2.75067 9.77287 2.82854 9.72251L5.13172 8.23415L7.43448 9.72251C7.60341 9.83161 7.81582 9.82162 7.97543 9.69665C8.1354 9.57168 8.21023 9.35622 8.16667 9.14786L7.57136 6.3141L9.5904 4.4007C9.73843 4.26032 9.79477 4.03868 9.73384 3.83573V3.83573Z" fill="#F5C34B"/>
</g>
<defs>
<clipPath id="clip0_32_550">
<rect width="9.25267" height="10" fill="white" transform="translate(0.505371)"/>
</clipPath>
</defs>
</svg>
