<svg width="17" height="16" viewBox="0 0 17 16" fill="none" xmlns="http://www.w3.org/2000/svg">
<path fill-rule="evenodd" clip-rule="evenodd" d="M8.46687 6.42676C7.57893 6.42676 6.85889 7.14635 6.85889 8.03475C6.85889 8.92262 7.579 9.64275 8.46687 9.64275C9.35473 9.64275 10.0749 8.92262 10.0749 8.03475C10.0749 7.14635 9.35487 6.42676 8.46687 6.42676ZM5.85889 8.03475C5.85889 6.59384 7.02685 5.42676 8.46687 5.42676C9.90693 5.42676 11.0749 6.59384 11.0749 8.03475C11.0749 9.47488 9.907 10.6428 8.46687 10.6428C7.02675 10.6428 5.85889 9.47488 5.85889 8.03475Z" fill="#041E42"/>
<path fill-rule="evenodd" clip-rule="evenodd" d="M3.78251 4.39916C4.97878 3.38778 6.63265 2.66699 8.4668 2.66699C10.3006 2.66699 11.9545 3.38721 13.1508 4.39836C14.3342 5.39849 15.1348 6.74298 15.1348 8.03498C15.1348 9.32698 14.3342 10.6714 13.1508 11.6716C11.9545 12.6828 10.3006 13.403 8.4668 13.403C6.63265 13.403 4.97878 12.6822 3.78251 11.6708C2.59933 10.6704 1.79883 9.32598 1.79883 8.03498C1.79883 6.74398 2.59933 5.3995 3.78251 4.39916ZM4.42815 5.16281C3.379 6.04982 2.79883 7.13931 2.79883 8.03498C2.79883 8.93065 3.379 10.0202 4.42815 10.9072C5.46421 11.7831 6.89434 12.403 8.4668 12.403C10.0391 12.403 11.4692 11.7835 12.5053 10.9078C13.5545 10.0212 14.1348 8.93165 14.1348 8.03498C14.1348 7.13831 13.5545 6.04882 12.5053 5.16212C11.4692 4.28643 10.0391 3.66699 8.4668 3.66699C6.89434 3.66699 5.46421 4.28687 4.42815 5.16281Z" fill="#041E42"/>
</svg>
