<svg width="10" height="10" viewBox="0 0 10 10" fill="none" xmlns="http://www.w3.org/2000/svg">
<g clip-path="url(#clip0_32_558)">
<path d="M9.24996 3.83573C9.18904 3.63325 9.02286 3.48989 8.82703 3.47074L6.15606 3.20866L5.10048 0.537725C5.02254 0.341494 4.84521 0.214844 4.64783 0.214844C4.45045 0.214844 4.27305 0.341494 4.19561 0.537725L3.14003 3.20866L0.468629 3.47074C0.272803 3.49027 0.106979 3.63363 0.0457035 3.83573C-0.0152186 4.03822 0.0410443 4.26032 0.189149 4.4007L2.20819 6.3141L1.61288 9.14786C1.56932 9.35622 1.64415 9.57168 1.80412 9.69665C1.8901 9.76417 1.99112 9.79789 2.09249 9.79789C2.1796 9.79789 2.26679 9.77287 2.34465 9.72251L4.64783 8.23415L6.95059 9.72251C7.11952 9.83161 7.33194 9.82162 7.49155 9.69665C7.65151 9.57168 7.72634 9.35622 7.68279 9.14786L7.08747 6.3141L9.10651 4.4007C9.25455 4.26032 9.31088 4.03868 9.24996 3.83573V3.83573Z" fill="#F5C34B"/>
</g>
<defs>
<clipPath id="clip0_32_558">
<rect width="9.25267" height="10" fill="white" transform="translate(0.0214844)"/>
</clipPath>
</defs>
</svg>
