<svg width="10" height="10" viewBox="0 0 10 10" fill="none" xmlns="http://www.w3.org/2000/svg">
<g clip-path="url(#clip0_32_552)">
<path d="M9.61275 3.83573C9.55183 3.63325 9.38565 3.48989 9.18983 3.47074L6.51885 3.20866L5.46327 0.537725C5.38533 0.341494 5.208 0.214844 5.01062 0.214844C4.81325 0.214844 4.63584 0.341494 4.5584 0.537725L3.50282 3.20866L0.831422 3.47074C0.635596 3.49027 0.469772 3.63363 0.408496 3.83573C0.347574 4.03822 0.403837 4.26032 0.551942 4.4007L2.57099 6.3141L1.97567 9.14786C1.93212 9.35622 2.00694 9.57168 2.16691 9.69665C2.25289 9.76417 2.35391 9.79789 2.45528 9.79789C2.5424 9.79789 2.62958 9.77287 2.70744 9.72251L5.01062 8.23415L7.31338 9.72251C7.48231 9.83161 7.69473 9.82162 7.85434 9.69665C8.01431 9.57168 8.08913 9.35622 8.04558 9.14786L7.45026 6.3141L9.46931 4.4007C9.61734 4.26032 9.67368 4.03868 9.61275 3.83573V3.83573Z" fill="#F5C34B"/>
</g>
<defs>
<clipPath id="clip0_32_552">
<rect width="9.25267" height="10" fill="white" transform="translate(0.384277)"/>
</clipPath>
</defs>
</svg>
