<svg width="10" height="10" viewBox="0 0 10 10" fill="none" xmlns="http://www.w3.org/2000/svg">
<g clip-path="url(#clip0_32_554)">
<path d="M9.49166 3.83573C9.43074 3.63325 9.26456 3.48989 9.06873 3.47074L6.39776 3.20866L5.34218 0.537725C5.26424 0.341494 5.08691 0.214844 4.88953 0.214844C4.69215 0.214844 4.51475 0.341494 4.43731 0.537725L3.38173 3.20866L0.710328 3.47074C0.514502 3.49027 0.348678 3.63363 0.287403 3.83573C0.226481 4.03822 0.282744 4.26032 0.430849 4.4007L2.44989 6.3141L1.85458 9.14786C1.81102 9.35622 1.88585 9.57168 2.04582 9.69665C2.1318 9.76417 2.23282 9.79789 2.33419 9.79789C2.4213 9.79789 2.50848 9.77287 2.58635 9.72251L4.88953 8.23415L7.19229 9.72251C7.36122 9.83161 7.57364 9.82162 7.73325 9.69665C7.89321 9.57168 7.96804 9.35622 7.92448 9.14786L7.32917 6.3141L9.34821 4.4007C9.49625 4.26032 9.55258 4.03868 9.49166 3.83573V3.83573Z" fill="#F5C34B"/>
</g>
<defs>
<clipPath id="clip0_32_554">
<rect width="9.25267" height="10" fill="white" transform="translate(0.263184)"/>
</clipPath>
</defs>
</svg>
