<svg width="10" height="10" viewBox="0 0 10 10" fill="none" xmlns="http://www.w3.org/2000/svg">
<g clip-path="url(#clip0_32_556)">
<path d="M9.37105 3.83573C9.31013 3.63325 9.14395 3.48989 8.94813 3.47074L6.27715 3.20866L5.22157 0.537725C5.14364 0.341494 4.9663 0.214844 4.76893 0.214844C4.57155 0.214844 4.39414 0.341494 4.3167 0.537725L3.26112 3.20866L0.589723 3.47074C0.393896 3.49027 0.228072 3.63363 0.166797 3.83573C0.105875 4.03822 0.162138 4.26032 0.310243 4.4007L2.32929 6.3141L1.73397 9.14786C1.69042 9.35622 1.76524 9.57168 1.92521 9.69665C2.01119 9.76417 2.11221 9.79789 2.21358 9.79789C2.3007 9.79789 2.38788 9.77287 2.46574 9.72251L4.76893 8.23415L7.07168 9.72251C7.24061 9.83161 7.45303 9.82162 7.61264 9.69665C7.77261 9.57168 7.84744 9.35622 7.80388 9.14786L7.20856 6.3141L9.22761 4.4007C9.37564 4.26032 9.43198 4.03868 9.37105 3.83573V3.83573Z" fill="#F5C34B"/>
</g>
<defs>
<clipPath id="clip0_32_556">
<rect width="9.25267" height="10" fill="white" transform="translate(0.142578)"/>
</clipPath>
</defs>
</svg>
