<svg width="15" height="12" viewBox="0 0 15 12" fill="none" xmlns="http://www.w3.org/2000/svg">
<path d="M12.8047 2.90625C13.3516 2.49609 13.8438 2.00391 14.2266 1.42969C13.7344 1.64844 13.1602 1.8125 12.5859 1.86719C13.1875 1.51172 13.625 0.964844 13.8438 0.28125C13.2969 0.609375 12.668 0.855469 12.0391 0.992188C11.4922 0.417969 10.7539 0.0898438 9.93359 0.0898438C8.34766 0.0898438 7.0625 1.375 7.0625 2.96094C7.0625 3.17969 7.08984 3.39844 7.14453 3.61719C4.76562 3.48047 2.63281 2.33203 1.21094 0.609375C0.964844 1.01953 0.828125 1.51172 0.828125 2.05859C0.828125 3.04297 1.32031 3.91797 2.11328 4.4375C1.64844 4.41016 1.18359 4.30078 0.800781 4.08203V4.10938C0.800781 5.50391 1.78516 6.65234 3.09766 6.92578C2.87891 6.98047 2.60547 7.03516 2.35938 7.03516C2.16797 7.03516 2.00391 7.00781 1.8125 6.98047C2.16797 8.12891 3.23438 8.94922 4.49219 8.97656C3.50781 9.74219 2.27734 10.207 0.9375 10.207C0.691406 10.207 0.472656 10.1797 0.253906 10.1523C1.51172 10.9727 3.01562 11.4375 4.65625 11.4375C9.93359 11.4375 12.8047 7.08984 12.8047 3.28906C12.8047 3.15234 12.8047 3.04297 12.8047 2.90625Z" fill="#041E42"/>
</svg>
